<?xml version="1.0" standalone="no"?>
<!DOCTYPE svg PUBLIC "-//W3C//DTD SVG 20010904//EN"
 "http://www.w3.org/TR/2001/REC-SVG-20010904/DTD/svg10.dtd">
<svg version="1.0" xmlns="http://www.w3.org/2000/svg"
 width="1200.000000pt" height="1474.000000pt" viewBox="0 0 1200.000000 1474.000000"
 preserveAspectRatio="xMidYMid meet">

<g transform="translate(0.000000,1474.000000) scale(0.100000,-0.100000)"
fill="#000000" stroke="none">
<path d="M8950 13290 c-13 -8 -13 -10 2 -10 9 0 20 5 23 10 8 13 -5 13 -25 0z"/>
<path d="M8865 13280 c-8 -13 15 -13 35 0 12 8 11 10 -7 10 -12 0 -25 -4 -28
-10z"/>
<path d="M8786 13271 c-3 -5 5 -8 19 -7 14 0 25 4 25 9 0 10 -38 9 -44 -2z"/>
<path d="M8730 13260 c-13 -9 -13 -10 0 -10 8 0 22 5 30 10 13 9 13 10 0 10
-8 0 -22 -5 -30 -10z"/>
<path d="M8650 13250 c-13 -9 -13 -10 0 -10 8 0 22 5 30 10 13 9 13 10 0 10
-8 0 -22 -5 -30 -10z"/>
<path d="M8560 13240 c-11 -8 -7 -10 18 -8 17 1 32 6 32 10 0 11 -32 10 -50
-2z"/>
<path d="M8500 13230 c0 -5 9 -10 20 -10 11 0 20 5 20 10 0 6 -9 10 -20 10
-11 0 -20 -4 -20 -10z"/>
<path d="M8435 13220 c-8 -13 15 -13 35 0 12 8 11 10 -7 10 -12 0 -25 -4 -28
-10z"/>
<path d="M8350 13210 c-13 -9 -13 -10 0 -10 8 0 22 5 30 10 13 9 13 10 0 10
-8 0 -22 -5 -30 -10z"/>
<path d="M8260 13201 c-14 -4 -33 -7 -43 -5 -9 1 -14 -2 -11 -7 3 -5 22 -7 42
-3 20 4 45 7 55 6 9 0 15 3 12 9 -7 10 -20 10 -55 0z"/>
<path d="M8130 13180 c-13 -9 -13 -10 0 -10 8 0 22 5 30 10 13 9 13 10 0 10
-8 0 -22 -5 -30 -10z"/>
<path d="M8050 13170 c-11 -7 -7 -9 17 -7 17 1 29 5 26 10 -6 10 -25 9 -43 -3z"/>
<path d="M7985 13160 c3 -5 12 -10 20 -10 8 0 17 5 20 10 4 6 -5 10 -20 10
-15 0 -24 -4 -20 -10z"/>
<path d="M7907 13148 c6 -11 31 -10 37 1 3 5 -5 8 -18 7 -13 0 -22 -4 -19 -8z"/>
<path d="M7830 13140 c-13 -9 -13 -10 0 -10 8 0 22 5 30 10 13 9 13 10 0 10
-8 0 -22 -5 -30 -10z"/>
<path d="M7755 13130 c-4 -6 5 -10 20 -10 15 0 24 4 20 10 -3 6 -12 10 -20 10
-8 0 -17 -4 -20 -10z"/>
<path d="M7694 13118 c10 -5 23 -5 34 1 14 8 10 10 -16 9 -26 -1 -30 -3 -18
-10z"/>
<path d="M7620 13110 c-13 -9 -13 -10 0 -10 8 0 22 5 30 10 13 9 13 10 0 10
-8 0 -22 -5 -30 -10z"/>
<path d="M7535 13100 c-3 -5 1 -10 9 -10 8 0 18 5 21 10 3 6 -1 10 -9 10 -8 0
-18 -4 -21 -10z"/>
<path d="M7456 13092 c-2 -4 6 -9 20 -10 13 -1 24 3 24 8 0 12 -37 14 -44 2z"/>
<path d="M7389 13077 c7 -7 18 -7 33 0 22 10 21 11 -10 10 -22 0 -30 -3 -23
-10z"/>
<path d="M7320 13070 c-13 -9 -13 -10 0 -10 8 0 22 5 30 10 13 9 13 10 0 10
-8 0 -22 -5 -30 -10z"/>
<path d="M7235 13060 c-3 -6 4 -9 19 -8 13 1 22 6 20 10 -7 11 -32 10 -39 -2z"/>
<path d="M7155 13050 c-5 -8 53 -6 61 3 3 3 -8 5 -25 5 -18 -1 -34 -4 -36 -8z"/>
<path d="M7100 13040 c-13 -9 -13 -10 0 -10 8 0 22 5 30 10 13 9 13 10 0 10
-8 0 -22 -5 -30 -10z"/>
<path d="M7020 13030 c-13 -9 -13 -10 0 -10 8 0 22 5 30 10 13 9 13 10 0 10
-8 0 -22 -5 -30 -10z"/>
<path d="M6940 13020 c0 -5 9 -10 21 -10 11 0 17 5 14 10 -3 6 -13 10 -21 10
-8 0 -14 -4 -14 -10z"/>
<path d="M6870 13009 c0 -11 30 -12 48 0 9 5 3 8 -17 9 -17 0 -31 -4 -31 -9z"/>
<path d="M6800 13000 c-13 -9 -13 -10 0 -10 8 0 22 5 30 10 13 9 13 10 0 10
-8 0 -22 -5 -30 -10z"/>
<path d="M6721 12991 c-9 -6 -5 -8 13 -8 14 0 26 3 26 8 0 11 -21 11 -39 0z"/>
<path d="M6640 12980 c-12 -8 -9 -10 13 -10 16 0 26 4 22 10 -8 12 -16 12 -35
0z"/>
<path d="M6575 12970 l-20 -9 20 0 c11 0 27 4 35 9 13 9 13 10 0 9 -8 0 -24
-4 -35 -9z"/>
<path d="M9505 12970 l-30 -8 27 -1 c15 0 30 4 33 9 3 6 5 9 3 9 -2 -1 -16 -5
-33 -9z"/>
<path d="M6500 12960 c-13 -9 -13 -10 0 -10 8 0 22 5 30 10 13 9 13 10 0 10
-8 0 -22 -5 -30 -10z"/>
<path d="M9440 12960 c-8 -5 -10 -10 -5 -10 6 0 17 5 25 10 8 5 11 10 5 10 -5
0 -17 -5 -25 -10z"/>
<path d="M6420 12950 c-12 -8 -9 -10 13 -10 16 0 26 4 22 10 -8 12 -16 12 -35
0z"/>
<path d="M9365 12950 c-3 -5 1 -10 9 -10 9 0 16 5 16 10 0 6 -4 10 -9 10 -6 0
-13 -4 -16 -10z"/>
<path d="M6320 12940 c-19 -5 -38 -6 -42 -4 -3 2 -9 0 -13 -6 -7 -12 101 -2
125 11 20 11 -21 10 -70 -1z"/>
<path d="M9277 12938 c-7 -5 -2 -8 13 -8 14 0 32 5 40 10 11 7 8 9 -13 8 -15
-1 -33 -6 -40 -10z"/>
<path d="M9239 12936 c-2 -3 -23 -6 -47 -9 -23 -2 -45 -7 -48 -10 -9 -9 89 4
106 14 8 4 10 9 4 9 -6 0 -13 -2 -15 -4z"/>
<path d="M6200 12920 c-13 -9 -13 -10 0 -10 8 0 22 5 30 10 13 9 13 10 0 10
-8 0 -22 -5 -30 -10z"/>
<path d="M6120 12910 c-12 -8 -9 -10 13 -10 15 0 27 5 27 10 0 13 -20 13 -40
0z"/>
<path d="M9070 12910 c-12 -8 -11 -10 8 -10 12 0 22 5 22 10 0 13 -11 13 -30
0z"/>
<path d="M6050 12898 c0 -12 38 -10 45 2 4 6 -5 9 -19 8 -15 -1 -26 -6 -26
-10z"/>
<path d="M8987 12898 c-17 -11 23 -9 48 2 17 7 16 8 -8 7 -15 -1 -33 -5 -40
-9z"/>
<path d="M5985 12890 c-13 -6 -15 -9 -5 -9 8 0 22 4 30 9 18 12 2 12 -25 0z"/>
<path d="M8940 12890 c-8 -5 -10 -10 -5 -10 6 0 17 5 25 10 8 5 11 10 5 10 -5
0 -17 -5 -25 -10z"/>
<path d="M5142 12836 c-13 -29 -33 -58 -45 -64 -17 -8 -18 -11 -5 -11 9 -1 20
4 23 9 8 13 42 13 47 0 2 -6 134 -78 293 -160 160 -81 289 -152 288 -157 -1
-5 9 -10 23 -11 13 -1 47 -13 74 -27 l51 -26 -1 -252 c0 -139 0 -1450 0 -2914
l0 -2663 185 0 185 0 0 2679 0 2679 23 6 c12 3 36 6 54 6 17 0 35 4 38 10 3 5
0 8 -7 6 -7 -2 -34 -7 -60 -10 l-48 -6 0 136 0 135 200 -102 c129 -66 200
-108 201 -118 0 -10 2 -12 6 -3 7 17 40 15 47 -3 3 -8 117 -71 255 -139 186
-94 252 -122 259 -113 5 7 19 31 31 54 l21 42 -121 63 -120 63 6 35 c4 19 10
38 13 42 4 4 45 12 92 18 47 6 87 14 90 17 8 8 -127 -8 -187 -22 -29 -7 -50
-9 -48 -5 3 4 -2 11 -11 14 -30 11 -52 6 -57 -14 -3 -11 -12 -20 -21 -20 -11
0 -731 362 -744 374 -1 2 0 29 4 60 6 46 10 56 25 56 11 0 19 5 19 11 0 7 -7
8 -17 4 -26 -10 -33 -10 -82 -1 -36 7 -46 5 -53 -8 -6 -10 -22 -16 -43 -16
-19 0 -35 -4 -35 -10 0 -5 -15 -10 -32 -9 -30 1 -31 2 -9 8 21 5 -10 24 -187
114 -126 65 -210 113 -207 120 2 7 6 37 9 67 5 51 4 56 -14 57 -11 1 -18 -2
-15 -8 8 -12 -7 -12 -41 1 -35 14 -52 -1 -46 -40 5 -35 -5 -37 -51 -13 l-32
16 34 9 c18 5 31 12 28 15 -3 3 -21 0 -38 -6 -30 -10 -40 -7 -120 34 -48 25
-91 45 -96 45 -4 0 -18 -24 -31 -54z m171 -43 c-7 -2 -21 -2 -30 0 -10 3 -4 5
12 5 17 0 24 -2 18 -5z m-70 -10 c-7 -2 -21 -2 -30 0 -10 3 -4 5 12 5 17 0 24
-2 18 -5z m880 -290 c-7 -2 -21 -2 -30 0 -10 3 -4 5 12 5 17 0 24 -2 18 -5z
m-53 -26 c0 -22 -11 -26 -36 -15 -33 15 -30 28 6 28 18 0 30 -5 30 -13z m-162
-4 c-10 -2 -26 -2 -35 0 -10 3 -2 5 17 5 19 0 27 -2 18 -5z m-70 -10 c-10 -2
-26 -2 -35 0 -10 3 -2 5 17 5 19 0 27 -2 18 -5z"/>
<path d="M5905 12881 c-3 -6 4 -9 15 -8 11 1 20 5 20 9 0 11 -28 10 -35 -1z"/>
<path d="M8855 12880 c-3 -5 3 -10 14 -10 12 0 21 5 21 10 0 6 -6 10 -14 10
-8 0 -18 -4 -21 -10z"/>
<path d="M5824 12868 c-3 -4 4 -8 15 -8 11 0 22 4 25 8 2 4 -4 8 -15 8 -11 0
-23 -4 -25 -8z"/>
<path d="M8780 12870 c-12 -8 -9 -10 13 -10 16 0 26 4 22 10 -8 12 -16 12 -35
0z"/>
<path d="M5737 12858 c-7 -4 2 -8 20 -8 17 0 34 4 37 9 7 10 -41 9 -57 -1z"/>
<path d="M8697 12858 c-7 -5 -1 -8 13 -8 14 0 31 4 39 9 10 7 6 9 -13 8 -15
-1 -33 -5 -39 -9z"/>
<path d="M5685 12850 c-19 -8 -19 -9 2 -9 12 -1 25 4 28 9 7 12 -2 12 -30 0z"/>
<path d="M8650 12850 c-8 -5 -10 -10 -5 -10 6 0 17 5 25 10 8 5 11 10 5 10 -5
0 -17 -5 -25 -10z"/>
<path d="M5595 12840 c-17 -7 -15 -9 13 -9 17 -1 32 4 32 9 0 12 -17 12 -45 0z"/>
<path d="M8560 12840 c-12 -8 -9 -10 13 -10 15 0 27 5 27 10 0 13 -20 13 -40
0z"/>
<path d="M8455 12824 l-50 -12 55 5 c58 6 66 8 53 15 -4 3 -30 -1 -58 -8z"/>
<path d="M8355 12811 c-3 -6 4 -9 15 -8 11 1 20 5 20 9 0 11 -28 10 -35 -1z"/>
<path d="M8270 12800 c-12 -8 -9 -10 13 -10 16 0 26 4 22 10 -8 12 -16 12 -35
0z"/>
<path d="M8177 12789 c-56 -9 -58 -20 -1 -13 50 7 100 25 59 21 -11 -1 -37 -4
-58 -8z"/>
<path d="M8065 12770 c-3 -5 3 -10 14 -10 12 0 21 5 21 10 0 6 -6 10 -14 10
-8 0 -18 -4 -21 -10z"/>
<path d="M5020 12758 c0 -5 9 -8 19 -8 11 0 22 3 24 8 3 4 -6 7 -19 7 -13 0
-24 -3 -24 -7z"/>
<path d="M7951 12759 c-24 -5 -47 -11 -50 -15 -3 -4 9 -4 28 0 18 3 47 6 63 6
17 0 27 4 23 10 -3 6 -9 10 -13 9 -4 -1 -27 -5 -51 -10z"/>
<path d="M4950 12750 c-12 -8 -12 -10 5 -10 11 0 27 5 35 10 12 8 12 10 -5 10
-11 0 -27 -5 -35 -10z"/>
<path d="M4870 12740 c-13 -9 -13 -10 0 -10 8 0 22 5 30 10 13 9 13 10 0 10
-8 0 -22 -5 -30 -10z"/>
<path d="M7850 12740 c-13 -9 -13 -10 0 -10 8 0 22 5 30 10 13 9 13 10 0 10
-8 0 -22 -5 -30 -10z"/>
<path d="M4805 12730 c3 -5 14 -10 23 -10 15 0 15 2 2 10 -20 13 -33 13 -25 0z"/>
<path d="M7775 12730 c-3 -5 1 -10 9 -10 9 0 16 5 16 10 0 6 -4 10 -9 10 -6 0
-13 -4 -16 -10z"/>
<path d="M4730 12716 c6 -6 18 -5 32 1 21 10 21 10 -9 9 -20 0 -29 -4 -23 -10z"/>
<path d="M7693 12719 c-15 -6 -14 -8 7 -8 14 0 32 4 40 9 12 7 10 9 -7 7 -12
0 -30 -4 -40 -8z"/>
<path d="M4655 12710 c-3 -5 1 -10 9 -10 8 0 18 5 21 10 3 6 -1 10 -9 10 -8 0
-18 -4 -21 -10z"/>
<path d="M7635 12710 c-19 -8 -19 -9 2 -9 12 -1 25 4 28 9 7 12 -2 12 -30 0z"/>
<path d="M4570 12700 c-13 -9 -13 -10 0 -10 8 0 22 5 30 10 13 9 13 10 0 10
-8 0 -22 -5 -30 -10z"/>
<path d="M7559 12699 c-10 -6 -7 -9 13 -9 15 0 29 4 32 8 7 11 -27 12 -45 1z"/>
<path d="M4510 12690 c8 -5 20 -10 25 -10 6 0 3 5 -5 10 -8 5 -19 10 -25 10
-5 0 -3 -5 5 -10z"/>
<path d="M7480 12690 c-12 -8 -9 -10 13 -10 16 0 26 4 22 10 -8 12 -16 12 -35
0z"/>
<path d="M4435 12680 c-8 -13 15 -13 35 0 12 8 11 10 -7 10 -12 0 -25 -4 -28
-10z"/>
<path d="M7415 12680 c-13 -5 -14 -9 -5 -9 8 0 24 4 35 9 13 5 14 9 5 9 -8 0
-24 -4 -35 -9z"/>
<path d="M4360 12670 c-13 -8 -13 -10 2 -10 9 0 20 5 23 10 8 13 -5 13 -25 0z"/>
<path d="M7350 12670 c-13 -9 -13 -10 0 -10 8 0 22 5 30 10 13 9 13 10 0 10
-8 0 -22 -5 -30 -10z"/>
<path d="M4277 12663 c-3 -5 6 -9 19 -9 13 -1 21 2 18 7 -6 11 -31 12 -37 2z"/>
<path d="M7270 12660 c-12 -8 -11 -10 8 -10 12 0 22 5 22 10 0 13 -11 13 -30
0z"/>
<path d="M4210 12648 c0 -4 7 -8 15 -8 8 0 15 4 15 8 0 5 -7 9 -15 9 -8 0 -15
-4 -15 -9z"/>
<path d="M4140 12640 c-13 -9 -13 -10 0 -10 8 0 22 5 30 10 13 9 13 10 0 10
-8 0 -22 -5 -30 -10z"/>
<path d="M7120 12640 l-25 -8 25 -1 c14 0 32 4 40 9 13 9 13 10 0 9 -8 -1 -26
-5 -40 -9z"/>
<path d="M7193 12643 c9 -2 23 -2 30 0 6 3 -1 5 -18 5 -16 0 -22 -2 -12 -5z"/>
<path d="M4050 12630 c-12 -8 -12 -10 5 -10 11 0 27 5 35 10 12 8 12 10 -5 10
-11 0 -27 -5 -35 -10z"/>
<path d="M7060 12630 c-13 -8 -13 -10 2 -10 9 0 20 5 23 10 8 13 -5 13 -25 0z"/>
<path d="M3990 12620 c20 -13 33 -13 25 0 -3 6 -14 10 -23 10 -15 0 -15 -2 -2
-10z"/>
<path d="M6990 12620 c0 -5 5 -10 10 -10 6 0 10 5 10 10 0 6 -4 10 -10 10 -5
0 -10 -4 -10 -10z"/>
<path d="M3920 12610 c-13 -9 -13 -10 0 -9 8 0 24 4 35 9 l20 9 -20 0 c-11 0
-27 -4 -35 -9z"/>
<path d="M6895 12613 c-22 -3 -44 -9 -50 -14 -10 -10 36 -5 105 11 38 9 17 10
-55 3z"/>
<path d="M3840 12600 c-13 -9 -13 -10 0 -10 8 0 22 5 30 10 13 9 13 10 0 10
-8 0 -22 -5 -30 -10z"/>
<path d="M3760 12590 c-12 -8 -9 -9 12 -8 15 1 24 6 22 10 -7 10 -16 10 -34
-2z"/>
<path d="M6770 12590 c-11 -8 -5 -9 20 -5 19 3 36 8 39 11 9 9 -45 3 -59 -6z"/>
<path d="M3697 12579 c7 -7 15 -10 18 -7 3 3 -2 9 -12 12 -14 6 -15 5 -6 -5z"/>
<path d="M6690 12580 c-12 -8 -11 -10 8 -10 12 0 22 5 22 10 0 13 -11 13 -30
0z"/>
<path d="M3625 12570 c-8 -13 5 -13 25 0 13 8 13 10 -2 10 -9 0 -20 -4 -23
-10z"/>
<path d="M6591 12569 c-24 -5 -47 -11 -50 -15 -8 -8 87 6 114 17 l20 8 -20 -1
c-11 0 -40 -4 -64 -9z"/>
<path d="M3545 12561 c-3 -6 4 -9 15 -8 11 1 20 5 20 9 0 11 -28 10 -35 -1z"/>
<path d="M3467 12553 c-3 -5 6 -9 19 -9 13 -1 21 2 18 7 -6 11 -31 12 -37 2z"/>
<path d="M6465 12550 c-30 -8 -30 -8 8 -9 20 0 37 4 37 9 0 11 -2 11 -45 0z"/>
<path d="M3400 12536 c6 -6 18 -5 32 2 22 10 21 10 -9 9 -19 -1 -28 -6 -23
-11z"/>
<path d="M3320 12530 c-12 -8 -12 -10 5 -10 11 0 27 5 35 10 12 8 12 10 -5 10
-11 0 -27 -5 -35 -10z"/>
<path d="M6290 12527 c-36 -6 -54 -13 -40 -14 14 -2 61 3 105 11 54 9 67 14
40 14 -22 -1 -69 -5 -105 -11z"/>
<path d="M3240 12520 c-13 -9 -13 -10 0 -10 8 0 22 5 30 10 13 9 13 10 0 10
-8 0 -22 -5 -30 -10z"/>
<path d="M3175 12509 c7 -11 35 -12 35 -1 0 4 -9 8 -20 9 -11 1 -18 -2 -15 -8z"/>
<path d="M3105 12500 l-20 -9 20 0 c11 0 27 4 35 9 13 9 13 10 0 9 -8 0 -24
-4 -35 -9z"/>
<path d="M3025 12490 c-3 -5 1 -10 9 -10 8 0 18 5 21 10 3 6 -1 10 -9 10 -8 0
-18 -4 -21 -10z"/>
<path d="M2940 12480 c-11 -7 -7 -9 17 -7 17 1 29 5 26 10 -6 10 -25 9 -43 -3z"/>
<path d="M2884 12468 c10 -6 22 -6 26 -2 5 5 -3 10 -18 11 -22 1 -24 0 -8 -9z"/>
<path d="M10303 12473 c9 -2 23 -2 30 0 6 3 -1 5 -18 5 -16 0 -22 -2 -12 -5z"/>
<path d="M2800 12460 c-12 -8 -12 -10 5 -10 11 0 27 5 35 10 12 8 12 10 -5 10
-11 0 -27 -5 -35 -10z"/>
<path d="M10080 12452 c-58 -9 -99 -17 -92 -20 19 -6 186 18 197 29 5 5 7 8 5
8 -3 -1 -52 -9 -110 -17z"/>
<path d="M10213 12463 c9 -2 23 -2 30 0 6 3 -1 5 -18 5 -16 0 -22 -2 -12 -5z"/>
<path d="M2720 12450 c-12 -8 -11 -10 7 -10 12 0 25 5 28 10 8 13 -15 13 -35
0z"/>
<path d="M2663 12439 c11 -7 23 -7 28 -2 5 5 -3 9 -19 11 -24 1 -25 0 -9 -9z"/>
<path d="M5700 12440 c20 -13 33 -13 25 0 -3 6 -14 10 -23 10 -15 0 -15 -2 -2
-10z"/>
<path d="M2590 12430 c-13 -9 -13 -10 0 -9 8 0 24 4 35 9 l20 9 -20 0 c-11 0
-27 -4 -35 -9z"/>
<path d="M5630 12430 c-13 -9 -13 -10 0 -10 8 0 22 5 30 10 13 9 13 10 0 10
-8 0 -22 -5 -30 -10z"/>
<path d="M9862 12422 c-56 -8 -100 -17 -98 -20 8 -8 206 21 206 30 0 4 -1 7
-2 7 -2 -1 -49 -8 -106 -17z"/>
<path d="M2505 12420 c-8 -13 15 -13 35 0 12 8 11 10 -7 10 -12 0 -25 -4 -28
-10z"/>
<path d="M5545 12420 c-8 -13 15 -13 35 0 12 8 11 10 -7 10 -12 0 -25 -4 -28
-10z"/>
<path d="M2430 12410 c-12 -8 -9 -9 12 -8 15 1 24 6 22 10 -7 10 -16 10 -34
-2z"/>
<path d="M5470 12410 c-11 -8 -9 -9 13 -8 15 1 27 6 27 10 0 11 -22 10 -40 -2z"/>
<path d="M2360 12400 c17 -11 47 -14 36 -3 -3 4 -17 8 -29 10 -17 2 -19 1 -7
-7z"/>
<path d="M5410 12400 c18 -12 30 -13 30 -2 0 4 -10 9 -22 9 -18 2 -20 0 -8 -7z"/>
<path d="M2290 12390 c-13 -9 -13 -10 0 -10 8 0 22 5 30 10 13 9 13 10 0 10
-8 0 -22 -5 -30 -10z"/>
<path d="M5335 12390 c-8 -13 15 -13 35 0 12 8 11 10 -7 10 -12 0 -25 -4 -28
-10z"/>
<path d="M9688 12393 c6 -2 18 -2 25 0 6 3 1 5 -13 5 -14 0 -19 -2 -12 -5z"/>
<path d="M2210 12380 c-13 -9 -13 -10 0 -10 8 0 22 5 30 10 13 9 13 10 0 10
-8 0 -22 -5 -30 -10z"/>
<path d="M5255 12380 c-3 -5 1 -10 9 -10 8 0 18 5 21 10 3 6 -1 10 -9 10 -8 0
-18 -4 -21 -10z"/>
<path d="M9535 12375 l-70 -13 73 5 c40 3 87 9 105 13 l32 8 -35 0 c-19 0 -66
-6 -105 -13z"/>
<path d="M2115 12371 c-15 -6 -8 -8 22 -8 25 1 38 4 30 9 -15 9 -26 9 -52 -1z"/>
<path d="M5180 12372 c0 -4 11 -9 26 -10 14 -1 23 2 19 8 -7 12 -45 14 -45 2z"/>
<path d="M2066 12358 c3 -4 9 -8 15 -8 5 0 9 4 9 8 0 5 -7 9 -15 9 -8 0 -12
-4 -9 -9z"/>
<path d="M5117 12358 c6 -11 31 -10 37 1 3 5 -5 8 -18 7 -13 0 -22 -4 -19 -8z"/>
<path d="M9420 12360 l-35 -7 38 -2 c20 0 37 4 37 9 0 6 -1 9 -2 9 -2 -1 -19
-5 -38 -9z"/>
<path d="M1990 12350 c-13 -9 -13 -10 0 -10 8 0 22 5 30 10 13 9 13 10 0 10
-8 0 -22 -5 -30 -10z"/>
<path d="M5045 12350 c-3 -5 1 -10 9 -10 8 0 18 5 21 10 3 6 -1 10 -9 10 -8 0
-18 -4 -21 -10z"/>
<path d="M1910 12340 c-11 -8 -9 -9 13 -8 15 1 27 6 27 10 0 11 -22 10 -40 -2z"/>
<path d="M4966 12341 c-3 -5 6 -8 19 -8 14 0 25 3 25 8 0 5 -9 9 -19 9 -11 0
-22 -4 -25 -9z"/>
<path d="M9255 12339 c-33 -5 -64 -11 -70 -14 -15 -7 117 6 156 15 l34 8 -30
0 c-16 0 -57 -4 -90 -9z"/>
<path d="M1840 12332 c0 -4 10 -9 22 -9 18 -2 20 0 8 7 -18 12 -30 13 -30 2z"/>
<path d="M4887 12333 c-3 -5 8 -9 24 -10 15 -1 30 1 33 5 3 4 -8 9 -24 10 -16
1 -31 -1 -33 -5z"/>
<path d="M1780 12320 c-18 -12 -2 -12 25 0 13 6 15 9 5 9 -8 0 -22 -4 -30 -9z"/>
<path d="M4835 12320 c-3 -5 1 -10 9 -10 8 0 18 5 21 10 3 6 -1 10 -9 10 -8 0
-18 -4 -21 -10z"/>
<path d="M9060 12313 c-124 -17 -154 -23 -148 -28 2 -2 33 0 68 5 36 5 90 12
120 15 30 4 59 11 65 16 5 5 7 8 5 8 -3 -1 -52 -8 -110 -16z"/>
<path d="M1690 12310 c-13 -9 -13 -10 0 -10 8 0 22 5 30 10 13 9 13 10 0 10
-8 0 -22 -5 -30 -10z"/>
<path d="M4750 12310 c-12 -8 -11 -10 7 -10 12 0 25 5 28 10 8 13 -15 13 -35
0z"/>
<path d="M1619 12305 c-3 -2 -21 -5 -41 -7 -20 -1 -34 -6 -32 -10 3 -5 22 -5
42 -2 20 4 42 7 49 7 7 0 10 4 7 9 -6 9 -18 11 -25 3z"/>
<path d="M4645 12301 c-26 -4 -35 -9 -27 -14 6 -5 16 -6 20 -3 5 3 25 6 45 8
20 1 33 6 31 10 -5 9 -7 8 -69 -1z"/>
<path d="M1475 12280 c-3 -5 1 -10 9 -10 8 0 18 5 21 10 3 6 -1 10 -9 10 -8 0
-18 -4 -21 -10z"/>
<path d="M4540 12280 c-13 -9 -13 -10 0 -10 8 0 22 5 30 10 13 9 13 10 0 10
-8 0 -22 -5 -30 -10z"/>
<path d="M1410 12276 c0 -2 7 -7 16 -10 8 -3 12 -2 9 4 -6 10 -25 14 -25 6z"/>
<path d="M4465 12270 c-3 -5 1 -10 9 -10 8 0 18 5 21 10 3 6 -1 10 -9 10 -8 0
-18 -4 -21 -10z"/>
<path d="M8745 12269 c-33 -5 -64 -11 -70 -14 -15 -7 117 6 156 15 l34 8 -30
0 c-16 0 -57 -4 -90 -9z"/>
<path d="M4381 12261 c-9 -6 -4 -8 17 -8 17 1 28 5 26 9 -7 10 -26 10 -43 -1z"/>
<path d="M4335 12250 c-3 -5 1 -10 9 -10 9 0 16 5 16 10 0 6 -4 10 -9 10 -6 0
-13 -4 -16 -10z"/>
<path d="M4250 12240 c-13 -9 -13 -10 0 -10 8 0 22 5 30 10 13 9 13 10 0 10
-8 0 -22 -5 -30 -10z"/>
<path d="M8588 12243 c7 -3 16 -2 19 1 4 3 -2 6 -13 5 -11 0 -14 -3 -6 -6z"/>
<path d="M4175 12230 c-3 -6 4 -9 19 -8 13 1 22 6 20 10 -7 11 -32 10 -39 -2z"/>
<path d="M8445 12229 c-33 -5 -64 -11 -70 -14 -15 -7 117 6 156 15 l34 8 -30
0 c-16 0 -57 -4 -90 -9z"/>
<path d="M4110 12220 c19 -13 30 -13 30 0 0 6 -10 10 -22 10 -19 0 -20 -2 -8
-10z"/>
<path d="M4040 12210 c-13 -9 -13 -10 0 -10 8 0 22 5 30 10 13 9 13 10 0 10
-8 0 -22 -5 -30 -10z"/>
<path d="M3955 12200 c-3 -5 1 -10 9 -10 8 0 18 5 21 10 3 6 -1 10 -9 10 -8 0
-18 -4 -21 -10z"/>
<path d="M8280 12202 c0 -4 16 -6 35 -4 19 2 35 6 35 8 0 2 -16 4 -35 4 -19 0
-35 -4 -35 -8z"/>
<path d="M3880 12190 c-12 -8 -9 -10 13 -10 15 0 27 5 27 10 0 13 -20 13 -40
0z"/>
<path d="M8170 12193 c-25 -3 -49 -8 -53 -13 -9 -8 67 -3 123 10 33 8 33 8 5
7 -16 0 -50 -2 -75 -4z"/>
<path d="M3815 12180 c7 -12 32 -13 39 -2 2 4 -7 9 -20 10 -15 1 -22 -2 -19
-8z"/>
<path d="M3750 12170 c-13 -9 -13 -10 0 -10 8 0 22 5 30 10 13 9 13 10 0 10
-8 0 -22 -5 -30 -10z"/>
<path d="M8078 12173 c7 -3 16 -2 19 1 4 3 -2 6 -13 5 -11 0 -14 -3 -6 -6z"/>
<path d="M3665 12160 c-3 -5 1 -10 9 -10 8 0 18 5 21 10 3 6 -1 10 -9 10 -8 0
-18 -4 -21 -10z"/>
<path d="M7935 12159 c-92 -13 -98 -19 -15 -12 41 3 79 9 85 14 6 6 6 9 0 8
-6 -1 -37 -5 -70 -10z"/>
<path d="M8028 12163 c7 -3 16 -2 19 1 4 3 -2 6 -13 5 -11 0 -14 -3 -6 -6z"/>
<path d="M3605 12150 c7 -12 32 -13 39 -2 2 4 -7 9 -20 10 -15 1 -22 -2 -19
-8z"/>
<path d="M3540 12140 c-13 -9 -13 -10 0 -10 8 0 22 5 30 10 13 9 13 10 0 10
-8 0 -22 -5 -30 -10z"/>
<path d="M7815 12140 c-19 -8 -19 -9 3 -9 12 -1 22 4 22 9 0 6 -1 10 -2 9 -2
0 -12 -4 -23 -9z"/>
<path d="M3455 12130 c-3 -5 1 -10 9 -10 8 0 18 5 21 10 3 6 -1 10 -9 10 -8 0
-18 -4 -21 -10z"/>
<path d="M3376 12121 c-3 -5 5 -8 19 -8 14 0 22 3 19 8 -3 5 -11 9 -19 9 -8 0
-16 -4 -19 -9z"/>
<path d="M7635 12119 c-33 -5 -64 -11 -70 -14 -16 -7 125 7 154 16 l26 7 -25
0 c-14 0 -52 -4 -85 -9z"/>
<path d="M3318 12108 c14 -7 26 -8 32 -2 6 6 -2 10 -23 11 -30 2 -31 1 -9 -9z"/>
<path d="M3245 12100 c-3 -5 1 -10 9 -10 8 0 18 5 21 10 3 6 -1 10 -9 10 -8 0
-18 -4 -21 -10z"/>
<path d="M3155 12090 c-11 -4 -30 -6 -41 -3 -12 2 -25 0 -28 -6 -8 -13 94 -5
108 9 12 12 -10 12 -39 0z"/>
<path d="M7385 12085 c-49 -7 -99 -14 -109 -14 -11 -1 -17 -4 -14 -7 8 -7 199
16 218 27 18 10 20 10 -95 -6z"/>
<path d="M3029 12067 c5 -5 17 -5 28 2 16 9 15 10 -9 9 -16 -2 -24 -6 -19 -11z"/>
<path d="M2955 12060 c-8 -13 5 -13 25 0 13 8 13 10 -2 10 -9 0 -20 -4 -23
-10z"/>
<path d="M2876 12051 c-3 -5 5 -8 19 -8 14 0 22 3 19 8 -3 5 -11 9 -19 9 -8 0
-16 -4 -19 -9z"/>
<path d="M2800 12042 c0 -4 9 -8 20 -9 11 -1 20 2 20 8 0 5 -9 9 -20 9 -11 0
-20 -4 -20 -8z"/>
<path d="M2745 12030 c-8 -13 15 -13 35 0 12 8 11 10 -7 10 -12 0 -25 -4 -28
-10z"/>
<path d="M2660 12020 c-13 -9 -13 -10 0 -10 8 0 22 5 30 10 13 9 13 10 0 10
-8 0 -22 -5 -30 -10z"/>
<path d="M2585 12010 c-4 -6 6 -10 22 -10 22 0 25 2 13 10 -19 12 -27 12 -35
0z"/>
<path d="M2520 11998 c0 -11 22 -10 40 2 11 8 9 9 -12 8 -16 -1 -28 -6 -28
-10z"/>
<path d="M2450 11990 c-13 -9 -13 -10 0 -10 8 0 22 5 30 10 13 9 13 10 0 10
-8 0 -22 -5 -30 -10z"/>
<path d="M2370 11980 c-11 -7 -7 -9 17 -7 17 1 29 5 26 10 -6 10 -25 9 -43 -3z"/>
<path d="M2300 11969 c0 -11 37 -12 43 -1 3 4 -6 8 -19 8 -13 1 -24 -2 -24 -7z"/>
<path d="M6531 11969 c-86 -11 -101 -20 -21 -13 84 8 159 22 115 22 -16 0 -59
-4 -94 -9z"/>
<path d="M2240 11960 c0 -5 4 -10 9 -10 6 0 13 5 16 10 3 6 -1 10 -9 10 -9 0
-16 -4 -16 -10z"/>
<path d="M2160 11950 c-13 -9 -13 -10 0 -10 8 0 22 5 30 10 13 9 13 10 0 10
-8 0 -22 -5 -30 -10z"/>
<path d="M2079 11945 c-3 -2 -19 -5 -37 -7 -17 -1 -28 -6 -24 -10 9 -9 92 2
92 13 0 9 -23 12 -31 4z"/>
<path d="M6398 11943 c6 -2 18 -2 25 0 6 3 1 5 -13 5 -14 0 -19 -2 -12 -5z"/>
<path d="M1945 11920 c-3 -5 1 -10 9 -10 8 0 18 5 21 10 3 6 -1 10 -9 10 -8 0
-18 -4 -21 -10z"/>
<path d="M1870 11911 c0 -5 9 -7 20 -4 11 3 20 7 20 9 0 2 -9 4 -20 4 -11 0
-20 -4 -20 -9z"/>
<path d="M5830 11870 c-12 -8 -11 -10 7 -10 12 0 25 5 28 10 8 13 -15 13 -35
0z"/>
<path d="M5687 11854 c-42 -6 -80 -14 -85 -19 -4 -4 2 -5 13 -2 11 3 53 9 93
13 40 4 74 10 77 14 5 8 -2 8 -98 -6z"/>
<path d="M5525 11830 c-17 -7 -15 -9 13 -9 17 -1 32 4 32 9 0 12 -17 12 -45 0z"/>
<path d="M5432 11820 c-18 -4 -35 -10 -38 -13 -8 -7 90 4 98 12 11 9 -20 10
-60 1z"/>
<path d="M5315 11800 l-20 -9 20 0 c11 0 27 4 35 9 13 9 13 10 0 9 -8 0 -24
-4 -35 -9z"/>
<path d="M5172 11785 c-39 -6 -75 -15 -80 -20 -4 -4 4 -5 18 -2 14 3 55 9 93
13 37 4 67 11 67 15 0 10 -2 10 -98 -6z"/>
<path d="M5020 11760 c-12 -8 -11 -10 8 -10 12 0 22 5 22 10 0 13 -11 13 -30
0z"/>
<path d="M4911 11749 c-24 -5 -47 -11 -50 -15 -3 -4 9 -4 28 0 18 3 44 6 57 6
13 0 24 5 24 10 0 6 -3 10 -7 9 -5 -1 -28 -5 -52 -10z"/>
<path d="M4805 11730 c-18 -8 -17 -9 7 -9 15 -1 30 4 33 9 7 12 -12 12 -40 0z"/>
<path d="M4720 11720 c-12 -8 -9 -10 13 -10 16 0 26 4 22 10 -8 12 -16 12 -35
0z"/>
<path d="M4593 11706 c-46 -7 -86 -15 -89 -19 -4 -4 -3 -7 2 -7 23 0 187 29
192 34 7 7 -1 7 -105 -8z"/>
<path d="M4425 11680 c-18 -8 -17 -9 8 -9 15 -1 27 4 27 9 0 12 -8 12 -35 0z"/>
<path d="M4337 11670 c-27 -5 -52 -11 -55 -15 -9 -9 90 5 108 16 17 10 13 10
-53 -1z"/>
<path d="M4210 11650 c-12 -8 -11 -10 8 -10 12 0 22 5 22 10 0 13 -11 13 -30
0z"/>
<path d="M4130 11640 c-12 -8 -10 -10 8 -10 13 0 20 4 17 10 -7 12 -6 12 -25
0z"/>
<path d="M4079 11636 c-2 -3 -23 -6 -47 -9 -23 -2 -45 -7 -49 -11 -10 -9 99 4
117 15 13 7 13 8 -1 9 -9 0 -18 -2 -20 -4z"/>
<path d="M3910 11610 c-12 -8 -11 -10 8 -10 12 0 22 5 22 10 0 13 -11 13 -30
0z"/>
<path d="M3828 11601 c-26 -4 -51 -10 -55 -15 -11 -11 90 4 102 15 5 5 7 8 5
8 -3 -1 -26 -5 -52 -8z"/>
<path d="M3695 11580 c-18 -8 -17 -9 8 -9 15 -1 27 4 27 9 0 12 -8 12 -35 0z"/>
<path d="M3570 11564 c-43 -10 -46 -12 -15 -9 22 3 53 5 68 5 16 0 26 4 22 10
-7 12 -4 12 -75 -6z"/>
<path d="M3480 11550 c-12 -7 -10 -9 8 -7 12 0 22 5 22 9 0 11 -12 10 -30 -2z"/>
<path d="M3400 11540 c-12 -8 -11 -10 8 -10 12 0 22 5 22 10 0 13 -11 13 -30
0z"/>
<path d="M3297 11530 c-57 -10 -58 -22 -2 -15 28 4 51 8 53 10 9 8 -17 11 -51
5z"/>
<path d="M3185 11510 c-18 -8 -17 -9 8 -9 15 -1 27 4 27 9 0 12 -8 12 -35 0z"/>
<path d="M3100 11500 c-12 -8 -9 -10 13 -10 16 0 26 4 22 10 -8 12 -16 12 -35
0z"/>
<path d="M3050 11490 c-8 -5 -10 -10 -5 -10 6 0 17 5 25 10 8 5 11 10 5 10 -5
0 -17 -5 -25 -10z"/>
<path d="M2938 11481 c-26 -4 -51 -11 -55 -15 -4 -5 7 -6 26 -2 18 3 46 6 62
6 16 0 29 5 29 10 0 6 -3 9 -7 9 -5 -1 -29 -5 -55 -8z"/>
<path d="M2781 11459 c-24 -5 -46 -11 -49 -13 -5 -5 100 4 106 9 10 9 -19 11
-57 4z"/>
<path d="M2665 11440 c-18 -8 -17 -9 7 -9 15 -1 30 4 33 9 7 12 -12 12 -40 0z"/>
<path d="M2572 11430 c-18 -4 -36 -11 -40 -15 -4 -3 5 -4 20 0 15 4 39 8 52 9
13 0 22 4 19 9 -5 8 -5 8 -51 -3z"/>
<path d="M4840 9561 c-1052 -426 -1808 -1376 -1984 -2491 -38 -238 -49 -586
-26 -817 144 -1462 1248 -2645 2690 -2882 316 -52 701 -56 1000 -10 697 106
1316 416 1811 909 415 413 708 921 849 1476 229 893 76 1826 -421 2584 -126
191 -245 336 -424 515 -238 239 -468 411 -747 563 -116 63 -341 165 -392 178
l-26 6 0 -174 0 -174 173 -86 c850 -425 1422 -1207 1579 -2160 19 -116 22
-172 22 -433 1 -314 -5 -380 -55 -615 -209 -982 -935 -1801 -1889 -2131 -110
-38 -296 -90 -370 -103 -19 -3 -46 -8 -60 -11 -131 -28 -266 -38 -515 -39
-273 -1 -348 5 -550 44 -769 147 -1447 601 -1881 1260 -234 355 -381 742 -451
1190 -14 91 -18 175 -18 405 0 287 5 349 44 551 86 444 292 889 583 1256 97
123 329 357 448 451 184 147 444 307 620 382 l90 39 0 178 c0 98 -1 178 -2
178 -2 0 -46 -18 -98 -39z"/>
<path d="M6391 5985 c-69 -20 -112 -46 -155 -97 -61 -71 -83 -183 -52 -268 12
-32 16 -35 47 -32 19 2 44 13 55 23 18 17 21 30 19 87 -2 49 0 60 7 43 5 -14
8 -44 7 -68 -2 -29 3 -48 16 -63 17 -18 31 -20 184 -22 l166 -2 -164 -3 c-183
-4 -200 -9 -202 -67 -2 -27 -2 -28 -6 -6 -7 37 -42 70 -75 70 -15 0 -28 -4
-28 -9 0 -17 88 -89 131 -108 24 -11 81 -32 126 -47 45 -15 97 -37 115 -50 28
-18 33 -28 33 -60 0 -54 -37 -81 -110 -81 -65 0 -100 23 -132 84 -12 24 -24
45 -26 48 -3 2 -52 -8 -111 -23 -73 -18 -106 -31 -106 -41 0 -36 55 -125 105
-171 64 -59 121 -81 227 -89 174 -13 319 50 382 167 56 103 42 231 -33 310
-39 41 -131 88 -263 135 -96 33 -128 57 -128 94 0 42 33 66 90 66 56 0 95 -24
119 -73 9 -17 23 -32 31 -32 21 0 200 63 200 71 0 24 -38 89 -77 130 -60 64
-128 90 -248 95 -61 3 -108 -1 -144 -11z m262 -42 c-29 -2 -77 -2 -105 0 -29
2 -6 3 52 3 58 0 81 -1 53 -3z m-346 -135 c-2 -24 -4 -5 -4 42 0 47 2 66 4 43
2 -24 2 -62 0 -85z m440 -25 c-2 -27 -3 -5 -3 47 0 52 1 74 3 48 2 -27 2 -69
0 -95z m-530 -39 c-3 -3 -12 -4 -19 -1 -8 3 -5 6 6 6 11 1 17 -2 13 -5z m40 0
c-3 -3 -12 -4 -19 -1 -8 3 -5 6 6 6 11 1 17 -2 13 -5z m494 -308 l-1 -106 58
-2 57 -2 -58 -3 -58 -4 2 -57 c1 -44 7 -63 25 -83 l24 -25 -25 -24 -25 -23
-23 21 c-22 21 -32 22 -197 22 -147 0 -176 -2 -192 -17 -10 -9 -18 -24 -18
-35 0 -10 -5 -18 -11 -18 -5 0 -7 5 -4 11 12 18 -36 59 -69 60 l-31 2 30 4
c55 8 75 38 77 117 2 70 2 70 5 14 l4 -58 52 -2 52 -2 -52 -3 c-56 -4 -64 -14
-36 -45 14 -16 34 -18 193 -18 163 0 178 2 195 20 15 17 17 40 16 190 0 94 -4
177 -7 183 -5 9 -4 9 6 0 9 -8 12 -43 11 -117z m-48 -13 c-7 -2 -19 -2 -25 0
-7 3 -2 5 12 5 14 0 19 -2 13 -5z m130 0 c-13 -2 -33 -2 -45 0 -13 2 -3 4 22
4 25 0 35 -2 23 -4z m-120 -100 c-13 -2 -35 -2 -50 0 -16 2 -5 4 22 4 28 0 40
-2 28 -4z m-430 -100 c-13 -2 -35 -2 -50 0 -16 2 -5 4 22 4 28 0 40 -2 28 -4z
m415 0 c-21 -2 -55 -2 -75 0 -21 2 -4 4 37 4 41 0 58 -2 38 -4z m130 0 c-10
-2 -28 -2 -40 0 -13 2 -5 4 17 4 22 1 32 -1 23 -4z"/>
<path d="M7964 5989 c-22 -5 -65 -24 -95 -42 -155 -93 -184 -304 -57 -423 42
-40 86 -62 218 -109 120 -43 150 -64 150 -110 0 -51 -38 -79 -110 -80 -71 0
-105 21 -137 84 -12 24 -24 45 -26 48 -9 8 -217 -50 -217 -61 0 -25 51 -117
86 -156 104 -115 326 -145 494 -67 143 67 210 236 146 373 -31 68 -93 117
-190 155 -199 75 -219 84 -233 106 -35 54 22 110 101 100 40 -6 82 -40 112
-93 11 -18 14 -18 113 14 55 18 101 38 101 43 0 19 -30 80 -56 114 -70 92
-248 138 -400 104z m97 -86 c-2 -49 -6 -80 -8 -70 -4 14 -17 17 -76 19 l-72 2
73 3 74 4 -4 64 c-2 39 1 65 7 65 6 0 8 -33 6 -87z m117 -50 c-21 -2 -55 -2
-75 0 -21 2 -4 4 37 4 41 0 58 -2 38 -4z m-401 -99 c-3 -3 -12 -4 -19 -1 -8 3
-5 6 6 6 11 1 17 -2 13 -5z m151 -1 c-27 -2 -69 -2 -95 0 -27 2 -5 3 47 3 52
0 74 -1 48 -3z m360 0 c-15 -2 -42 -2 -60 0 -18 2 -6 4 27 4 33 0 48 -2 33 -4z
m-130 -155 l67 -2 -60 -3 c-86 -6 -105 -26 -102 -109 1 -35 -1 -64 -5 -64 -5
0 -8 28 -8 63 0 54 -4 67 -24 86 -22 21 -31 22 -135 19 -61 -2 -111 0 -111 5
0 4 54 7 120 7 113 0 120 1 137 23 l18 24 18 -24 c16 -20 28 -23 85 -25z m235
-365 c-13 -2 -35 -2 -50 0 -16 2 -5 4 22 4 28 0 40 -2 28 -4z m-308 -43 c16
-18 32 -20 154 -22 l136 -2 -135 -3 c-157 -4 -169 -10 -171 -82 l-1 -46 -8 35
c-5 19 -7 37 -5 41 3 3 -6 16 -18 27 -20 19 -37 22 -147 25 l-125 3 126 2
c112 2 128 4 144 22 10 11 21 20 25 20 4 0 15 -9 25 -20z m-172 -97 c-13 -2
-33 -2 -45 0 -13 2 -3 4 22 4 25 0 35 -2 23 -4z"/>
<path d="M3688 5982 c22 -3 29 -16 14 -25 -4 -3 -8 -30 -10 -61 l-3 -56 215 0
216 0 0 45 0 45 -207 3 -208 2 209 3 c180 2 207 4 202 17 -3 8 -1 15 4 15 6 0
10 -70 10 -178 0 -214 -1 -211 106 -214 l69 -2 -65 -3 c-104 -6 -107 -12 -108
-198 l-1 -155 82 -2 82 -2 -70 -3 c-97 -5 -103 -8 -75 -38 21 -22 33 -25 104
-27 l81 -2 -80 -3 c-55 -3 -85 -9 -97 -20 -33 -29 -22 -43 35 -44 l52 -2 -60
-7 c-65 -7 -83 -4 -66 13 8 8 4 18 -14 37 l-25 27 20 18 c19 17 20 30 20 190
0 212 4 205 -138 220 l-97 10 0 110 0 110 72 0 c66 0 75 -3 100 -27 22 -22 27
-36 27 -76 0 -61 -23 -98 -67 -111 -31 -9 -30 -9 19 -10 37 -1 55 4 67 17 21
23 21 29 0 35 -17 4 -17 5 0 6 13 1 17 10 17 45 0 26 -5 46 -12 49 -10 4 -10
6 0 6 8 1 12 17 12 46 l0 45 -212 -2 -213 -3 -2 -25 c-4 -55 2 -59 95 -63 l87
-3 -87 -2 -88 -2 0 -45 0 -44 88 -4 87 -3 -87 -2 c-93 -2 -105 -10 -65 -42
l22 -18 -22 -24 c-13 -13 -23 -27 -23 -31 0 -4 93 -8 208 -10 l207 -2 -207 -3
-208 -2 0 -45 0 -44 88 -4 87 -3 -87 -2 -88 -2 0 -45 0 -44 58 -4 57 -3 -57
-2 -58 -2 0 -40 0 -39 88 -4 87 -3 -87 -2 c-93 -2 -107 -11 -70 -45 13 -12 40
-18 88 -19 l69 -2 -65 -3 c-49 -3 -70 -9 -87 -25 -13 -12 -23 -25 -23 -30 0
-4 39 -9 88 -10 l87 -2 -85 -3 c-51 -3 -87 -9 -92 -16 -6 -9 -8 -9 -8 0 0 6
-12 14 -27 16 l-28 4 28 2 c33 1 34 11 2 41 l-24 23 24 19 c25 19 25 21 25
179 l0 159 -27 1 -28 1 30 7 30 6 -27 28 -27 27 27 28 27 27 -30 4 c-29 4 -30
4 -5 10 14 4 25 12 24 19 -1 7 -2 25 -2 41 -2 22 -8 31 -24 34 l-23 4 23 2
c19 1 22 6 22 45 0 38 -3 45 -22 49 l-23 4 23 2 c20 1 22 6 22 59 0 57 -11 82
-37 82 -10 0 -13 -90 -13 -465 l0 -465 23 -5 c12 -3 67 -5 122 -3 l100 3 5
180 5 180 44 0 44 0 63 -165 c34 -91 67 -173 73 -182 10 -16 27 -18 129 -18
64 0 123 4 130 9 11 6 -6 51 -77 201 -92 194 -98 210 -83 210 19 0 86 76 105
119 15 34 20 66 20 121 -2 124 -47 201 -147 250 l-61 29 -230 3 c-126 2 -220
2 -207 0z m500 -49 c-10 -2 -26 -2 -35 0 -10 3 -2 5 17 5 19 0 27 -2 18 -5z
m70 -100 c-21 -2 -57 -2 -80 0 -24 2 -7 4 37 4 44 0 63 -2 43 -4z m20 -100
c-27 -2 -69 -2 -95 0 -27 2 -5 3 47 3 52 0 74 -1 48 -3z m-111 -99 c-3 -3 -12
-4 -19 -1 -8 3 -5 6 6 6 11 1 17 -2 13 -5z m-298 -58 c-11 -10 -119 -16 -119
-6 0 6 25 10 62 10 34 0 59 -2 57 -4z m-196 -173 c-7 -2 -19 -2 -25 0 -7 3 -2
5 12 5 14 0 19 -2 13 -5z m0 -100 c-7 -2 -19 -2 -25 0 -7 3 -2 5 12 5 14 0 19
-2 13 -5z m0 -90 c-7 -2 -19 -2 -25 0 -7 3 -2 5 12 5 14 0 19 -2 13 -5z m430
0 c-7 -2 -21 -2 -30 0 -10 3 -4 5 12 5 17 0 24 -2 18 -5z"/>
<path d="M4523 5983 c-10 -4 -13 -107 -13 -468 0 -413 2 -464 16 -469 9 -3
152 -6 318 -6 222 0 305 3 314 12 15 15 16 164 1 174 -6 3 -95 7 -197 8 l-187
1 -3 98 -3 97 143 0 c79 0 149 4 156 9 9 5 12 31 10 92 l-3 84 -152 3 -153 3
0 89 0 90 198 2 197 3 3 78 c2 50 -1 84 -9 93 -9 11 -66 14 -318 13 -168 0
-312 -3 -318 -6z m49 -184 c-3 -159 -1 -184 14 -200 16 -17 34 -19 194 -19
146 0 180 3 190 15 7 8 20 15 30 15 10 0 23 -7 30 -15 7 -8 20 -15 29 -16 13
0 14 -1 1 -6 -35 -13 -50 -37 -52 -82 l-1 -46 -4 40 c-3 22 -14 50 -25 63 -21
21 -28 22 -193 22 -210 0 -215 -2 -215 -91 l0 -59 93 -2 92 -2 -92 -3 -93 -4
0 -44 0 -45 93 -2 92 -2 -92 -3 -93 -4 0 -44 0 -45 188 -2 187 -3 -187 -2
c-104 -2 -188 -6 -188 -10 0 -4 10 -17 22 -30 21 -22 27 -23 193 -23 165 0
172 1 192 23 11 12 23 29 26 37 5 13 6 13 6 -1 2 -30 44 -58 96 -62 l50 -3
-54 -2 c-62 -2 -91 -22 -91 -61 0 -20 -3 -22 -9 -11 -6 8 -7 18 -4 23 3 4 -3
17 -13 28 -16 17 -32 19 -194 19 -170 0 -177 -1 -197 -22 -12 -13 -23 -32 -26
-43 -4 -17 -5 -16 -6 4 0 14 -10 34 -21 46 l-20 22 20 18 c19 17 20 30 20 190
0 159 -1 173 -20 190 -25 23 -25 31 0 52 18 15 19 30 19 175 0 141 -2 158 -17
159 -15 1 -15 2 1 6 20 5 22 14 5 31 -9 9 -8 12 8 12 18 0 19 -7 16 -181z
m430 114 c-5 -103 -8 -106 -13 -15 -3 53 0 82 6 82 7 0 10 -25 7 -67z m-124
20 c-53 -2 -143 -2 -200 0 -57 1 -13 3 97 3 110 0 156 -2 103 -3z"/>
<path d="M5293 5983 c-10 -4 -13 -107 -13 -468 0 -413 2 -464 16 -469 29 -11
169 -7 182 6 9 9 12 89 12 297 0 156 2 282 5 279 3 -3 68 -136 143 -294 l137
-289 110 0 110 0 0 470 0 470 -95 0 -95 0 -5 -250 -5 -250 -63 130 c-35 72
-86 180 -114 240 -28 61 -55 116 -61 123 -7 8 -45 12 -131 11 -66 0 -127 -3
-133 -6z m149 -179 c-3 -171 -2 -178 19 -200 l22 -24 -21 -22 c-19 -22 -21
-34 -20 -191 1 -150 3 -170 20 -192 19 -24 19 -25 -3 -54 -12 -16 -19 -37 -16
-45 4 -9 2 -16 -3 -16 -6 0 -10 13 -10 28 0 40 -17 52 -79 53 l-56 2 52 6 c85
10 86 12 84 212 -2 205 -3 208 -90 211 l-56 2 50 3 c63 5 131 61 78 64 -17 1
-17 2 0 6 16 4 18 18 15 169 -2 105 1 164 7 164 6 0 9 -63 7 -176z m438 -1 c0
-202 3 -212 74 -215 41 -1 41 -1 6 -5 -19 -3 -45 -14 -57 -25 -21 -20 -22 -28
-22 -192 0 -195 3 -205 73 -208 41 -1 41 -1 6 -5 -43 -5 -80 -38 -80 -72 0
-19 -3 -22 -9 -12 -5 8 -7 19 -5 26 9 21 -40 54 -86 58 l-45 4 49 1 c84 3 86
8 86 208 l0 172 -31 26 c-17 15 -24 26 -16 26 8 0 21 8 30 18 14 15 16 44 14
195 -1 97 1 177 6 177 4 0 7 -80 7 -177z m103 40 c-7 -2 -21 -2 -30 0 -10 3
-4 5 12 5 17 0 24 -2 18 -5z m-140 -100 c-7 -2 -19 -2 -25 0 -7 3 -2 5 12 5
14 0 19 -2 13 -5z m125 0 c-16 -2 -40 -2 -55 0 -16 2 -3 4 27 4 30 0 43 -2 28
-4z m-415 -100 c-7 -2 -21 -2 -30 0 -10 3 -4 5 12 5 17 0 24 -2 18 -5z m114 0
c-20 -2 -52 -2 -70 0 -17 2 0 4 38 4 39 0 53 -2 32 -4z m63 -63 c0 -6 -38 -9
-97 -8 l-98 2 95 6 c52 3 96 7 98 8 1 1 2 -2 2 -8z m-383 -66 c-3 -3 -12 -4
-19 -1 -8 3 -5 6 6 6 11 1 17 -2 13 -5z m70 0 c-3 -3 -12 -4 -19 -1 -8 3 -5 6
6 6 11 1 17 -2 13 -5z m250 -1 c-20 -2 -52 -2 -70 0 -17 2 0 4 38 4 39 0 53
-2 32 -4z m70 1 c-3 -3 -12 -4 -19 -1 -8 3 -5 6 6 6 11 1 17 -2 13 -5z m-360
-430 c-3 -3 -12 -4 -19 -1 -8 3 -5 6 6 6 11 1 17 -2 13 -5z m441 -1 c-10 -2
-26 -2 -35 0 -10 3 -2 5 17 5 19 0 27 -2 18 -5z"/>
<path d="M6904 5977 c-3 -8 52 -130 121 -272 l125 -258 0 -192 c0 -152 3 -195
14 -204 9 -8 52 -11 127 -9 l114 3 5 205 5 205 138 253 c76 139 136 260 133
268 -4 11 -30 14 -120 14 l-114 0 -39 -82 c-21 -46 -54 -116 -73 -157 l-36
-74 -58 134 c-86 197 -64 179 -212 179 -94 0 -126 -3 -130 -13z m713 -94 c-2
-21 -4 -6 -4 32 0 39 2 55 4 38 2 -18 2 -50 0 -70z m-405 -270 c19 -20 31 -23
142 -26 l121 -3 -126 -2 c-149 -2 -155 -6 -158 -94 l-2 -58 38 -2 38 -1 -37
-4 c-38 -4 -38 -5 -38 -49 l0 -44 58 -2 57 -2 -58 -3 -58 -4 2 -59 c3 -84 20
-98 124 -103 l80 -3 -84 -2 c-99 -2 -121 -15 -121 -70 0 -41 -8 -39 -13 4 -2
16 -7 37 -12 48 -5 11 -3 32 3 50 7 20 12 97 12 196 0 179 -6 199 -59 201 -21
1 -22 2 -6 6 11 3 30 14 42 25 19 18 21 30 22 131 0 180 5 205 8 42 3 -136 5
-151 25 -172z m241 40 c-7 -2 -19 -2 -25 0 -7 3 -2 5 12 5 14 0 19 -2 13 -5z
m50 0 c-7 -2 -19 -2 -25 0 -7 3 -2 5 12 5 14 0 19 -2 13 -5z m-200 -230 c-7
-2 -19 -2 -25 0 -7 3 -2 5 12 5 14 0 19 -2 13 -5z m80 -330 c-7 -2 -19 -2 -25
0 -7 3 -2 5 12 5 14 0 19 -2 13 -5z"/>
</g>
</svg>
